<svg width="1284" height="622" viewBox="0 0 1284 622" fill="none" xmlns="http://www.w3.org/2000/svg" class="w-[1280px] h-[619.05px] relative" preserveAspectRatio="none">
	<line x1="196.002" y1="114.014" x2="196.002" y2="181.014" stroke="black" stroke-width="4">
	</line>
	<line y1="-2" x2="67" y2="-2" transform="matrix(0 1 1 0 1082 114.014)" stroke="black" stroke-width="4">
	</line>
	<line y1="-2" x2="67" y2="-2" transform="matrix(0 -1 -1 0 198.002 619.014)" stroke="black" stroke-width="4">
	</line>
	<line x1="1076" y1="619.014" x2="1076" y2="552.014" stroke="black" stroke-width="4">
	</line>
	<line x1="196.002" y1="183.014" x2="126.002" y2="183.014" stroke="black" stroke-width="4">
	</line>
	<line y1="-2" x2="70" y2="-2" transform="matrix(1 0 0 -1 1080 181.014)" stroke="black" stroke-width="4">
	</line>
	<line y1="-2" x2="70" y2="-2" transform="matrix(-1 0 0 1 200.002 552.014)" stroke="black" stroke-width="4">
	</line>
	<line x1="1076" y1="550.014" x2="1146" y2="550.014" stroke="black" stroke-width="4">
	</line>
	<line x1="196.002" y1="180.014" x2="197.002" y2="180.014" stroke="black" stroke-width="4">
	</line>
	<line y1="-2" x2="1" y2="-2" transform="matrix(-1 0 0 1 1080 182.014)" stroke="black" stroke-width="4">
	</line>
	<line y1="-2" x2="1" y2="-2" transform="matrix(1 0 0 -1 200.002 551.014)" stroke="black" stroke-width="4">
	</line>
	<line x1="1076" y1="553.014" x2="1075" y2="553.014" stroke="black" stroke-width="4">
	</line>
	<line x1="196.002" y1="114.014" x2="196.002" y2="181.014" stroke="black" stroke-width="4">
	</line>
	<line y1="-2" x2="67" y2="-2" transform="matrix(0 1 1 0 1082 114.014)" stroke="black" stroke-width="4">
	</line>
	<line y1="-2" x2="67" y2="-2" transform="matrix(0 -1 -1 0 198.002 619.014)" stroke="black" stroke-width="4">
	</line>
	<line x1="1076" y1="619.014" x2="1076" y2="552.014" stroke="black" stroke-width="4">
	</line>
	<line x1="196.002" y1="183.014" x2="126.002" y2="183.014" stroke="black" stroke-width="4">
	</line>
	<line y1="-2" x2="70" y2="-2" transform="matrix(1 0 0 -1 1080 181.014)" stroke="black" stroke-width="4">
	</line>
	<path d="M200.002 550.014H50.5" stroke="black" stroke-width="4">
	</path>
	<line x1="1076" y1="550.014" x2="1146" y2="550.014" stroke="black" stroke-width="4">
	</line>
	<line x1="196.002" y1="180.014" x2="197.002" y2="180.014" stroke="black" stroke-width="4">
	</line>
	<line y1="-2" x2="1" y2="-2" transform="matrix(-1 0 0 1 1080 182.014)" stroke="black" stroke-width="4">
	</line>
	<line y1="-2" x2="1" y2="-2" transform="matrix(1 0 0 -1 200.002 551.014)" stroke="black" stroke-width="4">
	</line>
	<line x1="1076" y1="553.014" x2="1075" y2="553.014" stroke="black" stroke-width="4">
	</line>
	<line x1="196.002" y1="114.014" x2="196.002" y2="181.014" stroke="black" stroke-width="4">
	</line>
	<line y1="-2" x2="67" y2="-2" transform="matrix(0 1 1 0 1082 114.014)" stroke="black" stroke-width="4">
	</line>
	<line y1="-2" x2="67" y2="-2" transform="matrix(0 -1 -1 0 198.002 619.014)" stroke="black" stroke-width="4">
	</line>
	<line x1="1076" y1="619.014" x2="1076" y2="552.014" stroke="black" stroke-width="4">
	</line>
	<line x1="196.002" y1="183.014" x2="126.002" y2="183.014" stroke="black" stroke-width="4">
	</line>
	<line x1="1076" y1="550.014" x2="1146" y2="550.014" stroke="black" stroke-width="4">
	</line>
	<line x1="196.002" y1="180.014" x2="197.002" y2="180.014" stroke="black" stroke-width="4">
	</line>
	<line y1="-2" x2="1" y2="-2" transform="matrix(-1 0 0 1 1080 182.014)" stroke="black" stroke-width="4">
	</line>
	<line y1="-2" x2="1" y2="-2" transform="matrix(1 0 0 -1 200.002 551.014)" stroke="black" stroke-width="4">
	</line>
	<line x1="1076" y1="553.014" x2="1075" y2="553.014" stroke="black" stroke-width="4">
	</line>
	<line x1="196.002" y1="114.014" x2="196.002" y2="181.014" stroke="black" stroke-width="4">
	</line>
	<line y1="-2" x2="67" y2="-2" transform="matrix(0 1 1 0 1082 114.014)" stroke="black" stroke-width="4">
	</line>
	<line y1="-2" x2="67" y2="-2" transform="matrix(0 -1 -1 0 198.002 619.014)" stroke="black" stroke-width="4">
	</line>
	<line x1="1076" y1="619.014" x2="1076" y2="552.014" stroke="black" stroke-width="4">
	</line>
	<line x1="196.002" y1="183.014" x2="126.002" y2="183.014" stroke="black" stroke-width="4">
	</line>
	<path d="M1078.44 182.5H1149.5L1280 184" stroke="black" stroke-width="4">
	</path>
	<line x1="1076" y1="550.014" x2="1146" y2="550.014" stroke="black" stroke-width="4">
	</line>
	<line x1="196.002" y1="180.014" x2="197.002" y2="180.014" stroke="black" stroke-width="4">
	</line>
	<line y1="-2" x2="1" y2="-2" transform="matrix(-1 0 0 1 1080 182.014)" stroke="black" stroke-width="4">
	</line>
	<line y1="-2" x2="1" y2="-2" transform="matrix(1 0 0 -1 200.002 551.014)" stroke="black" stroke-width="4">
	</line>
	<line x1="1076" y1="553.014" x2="1075" y2="553.014" stroke="black" stroke-width="4">
	</line>
	<path d="M50.9941 231L197.429 230.461" stroke="black" stroke-width="4">
	</path>
	<line x1="1229.02" y1="233" x2="1078.59" y2="234.461" stroke="black" stroke-width="4">
	</line>
	<line x1="199.431" y1="230.449" x2="201.067" y2="505.001" stroke="black" stroke-width="4">
	</line>
	<line y1="-2" x2="274.557" y2="-2" transform="matrix(-0.00596011 0.999982 0.999982 0.00596011 1079.57 230.461)" stroke="black" stroke-width="4">
	</line>
	<line x1="196.431" y1="230.464" x2="196.428" y2="229.464" stroke="black" stroke-width="4">
	</line>
	<line y1="-2" x2="1" y2="-2" transform="matrix(0.00297617 -0.999996 -0.999996 -0.00297617 1077.57 230.458)" stroke="black" stroke-width="4">
	</line>
	<line x1="200.001" y1="507.014" x2="2.99985" y2="507" stroke="black" stroke-width="4">
	</line>
	<line y1="-2" x2="70" y2="-2" transform="matrix(1 0 0 -1 1076 505.014)" stroke="black" stroke-width="4">
	</line>
	<line x1="196.001" y1="112.014" x2="1082" y2="112" stroke="black" stroke-width="4">
	</line>
	<line x1="199.002" y1="617.014" x2="1075" y2="617.014" stroke="black" stroke-width="4">
	</line>
	<line x1="406.002" y1="114.018" x2="405.002" y2="619.017" stroke="black" stroke-width="4">
	</line>
	<line x1="869.002" y1="115.01" x2="870.002" y2="619.01" stroke="black" stroke-width="4">
	</line>
	<line x1="559.001" y1="113.936" x2="562.001" y2="618.936" stroke="#E34545" stroke-width="26">
	</line>
	<line x1="745.001" y1="114.069" x2="742.992" y2="619.069" stroke="black" stroke-width="28">
	</line>
	<line x1="556.502" y1="110" x2="556.502" y2="1.00001" stroke="#E34545" stroke-width="5">
	</line>
	<line x1="744.002" y1="112.018" x2="743.002" y2="1.01803" stroke="black" stroke-width="4">
	</line>
	<rect width="147" height="507.047" transform="translate(404.002 112)" fill="#797F8A">
	</rect>
	<line y1="-2" x2="505" y2="-2" transform="matrix(-0.0020214 0.999998 -0.999998 -0.00193983 405.022 112.542)" stroke="black" stroke-width="4">
	</line>
	<line y1="-2" x2="505" y2="-2" transform="matrix(-0.0020214 0.999998 -0.999998 -0.00193983 546.914 113.529)" stroke="black" stroke-width="4">
	</line>
	<path d="M405.022 112.529L551.002 113.029" stroke="black">
	</path>
	<path d="M404.002 618.029L549.981 618.518" stroke="black">
	</path>
	<rect width="147" height="507.047" transform="translate(747.002 114)" fill="#797F8A">
	</rect>
	<line y1="-2" x2="505" y2="-2" transform="matrix(-0.0020214 0.999998 -0.999998 -0.00193983 748.022 114.542)" stroke="black" stroke-width="4">
	</line>
	<line y1="-2" x2="505" y2="-2" transform="matrix(-0.0020214 0.999998 -0.999998 -0.00193983 889.914 115.529)" stroke="black" stroke-width="4">
	</line>
	<path d="M748.022 114.529L894.002 115.029" stroke="black">
	</path>
	<path d="M747.002 620.029L892.981 620.518" stroke="black">
	</path>
	<line x1="556.002" y1="0.499985" x2="622.002" y2="0.499985" stroke="#E34545">
	</line>
	<line x1="744.002" y1="0.91773" x2="677.998" y2="0.499983" stroke="black">
	</line>
	<path d="M127.01 183L0.00151659 183" stroke="black" stroke-width="4">
	</path>
	<line x1="2.03299" y1="181.001" x2="2.00001" y2="310.001" stroke="black" stroke-width="4">
	</line>
	<line x1="50.0015" y1="229" x2="50.0015" y2="308" stroke="black" stroke-width="4">
	</line>
	<line x1="3.9999" y1="506.98" x2="5.01951" y2="610.98" stroke="black" stroke-width="4">
	</line>
	<line x1="52" y1="550" x2="52" y2="611" stroke="black" stroke-width="4">
	</line>
	<path d="M1229 232V298.5" stroke="black" stroke-width="4">
	</path>
	<line x1="1282" y1="184" x2="1281.98" y2="305" stroke="black" stroke-width="4">
	</line>
</svg>
